<svg width="81" height="81" viewBox="0 0 81 81" fill="none" xmlns="http://www.w3.org/2000/svg">
<g clip-path="url(#clip0_385_4725)">
<path d="M80.0843 40.3564C80.0843 53.4725 69.4905 64.1925 56.2482 64.1925C43.132 64.1925 32.4121 53.4725 32.4121 40.3564C32.4121 27.2402 43.0059 16.5203 56.1221 16.5203C69.4905 16.5203 80.0843 27.2402 80.0843 40.3564Z" fill="#B7A9AA"/>
<path d="M56.2482 16.5203C69.3644 16.5203 80.0843 27.2402 80.0843 40.3564C80.0843 53.4725 69.4905 64.1925 56.2482 64.1925C43.132 64.1925 32.4121 53.4725 32.4121 40.3564" fill="#B7A9AA"/>
<path d="M56.248 16.5203C69.3642 16.5203 80.0841 27.2402 80.0841 40.3564C80.0841 53.4725 69.4903 64.1925 56.248 64.1925" fill="#B7A9AA"/>
<path d="M24.2147 16.5204C11.2247 16.6465 0.630859 27.2403 0.630859 40.3565C0.630859 53.4726 11.2247 64.1926 24.467 64.1926C30.6467 64.1926 36.1958 61.7964 40.4838 58.0128C41.3666 57.2561 42.1233 56.3733 42.88 55.4905H37.9615C37.3309 54.7338 36.7003 53.851 36.1958 53.0943H44.6457C45.1501 52.3376 45.6546 51.4548 46.0329 50.5719H34.8085C34.4302 49.8152 34.0518 48.9324 33.7996 48.0496H46.9158C47.6725 45.6534 48.1769 43.131 48.1769 40.4826C48.1769 38.717 47.9247 37.0774 47.6725 35.4379H33.0429C33.169 34.5551 33.4213 33.7984 33.6735 32.9156H46.7896C46.5374 32.0328 46.1591 31.1499 45.7807 30.3932H34.6824C35.0608 29.5104 35.5652 28.7537 36.0697 27.8709H44.5195C44.0151 26.9881 43.3845 26.1053 42.6278 25.3486H37.9615C38.7182 24.4658 39.4749 23.709 40.3577 22.9523C36.1958 19.0427 30.5206 16.7726 24.3408 16.7726C24.3408 16.5204 24.3408 16.5204 24.2147 16.5204Z" fill="#B7A9AA"/>
<path d="M0.630859 40.3569C0.630859 53.4731 11.2247 64.193 24.467 64.193C30.6467 64.193 36.1958 61.7968 40.4838 58.0133C41.3666 57.2566 42.1233 56.3738 42.88 55.491H37.9615C37.3309 54.7343 36.7003 53.8514 36.1958 53.0947H44.6457C45.1501 52.338 45.6546 51.4552 46.0329 50.5724H34.8085C34.4302 49.8157 34.0518 48.9329 33.7996 48.0501H46.9158C47.6725 45.6538 48.1769 43.1315 48.1769 40.483C48.1769 38.7174 47.9247 37.0779 47.6725 35.4384H33.0429C33.169 34.5556 33.4213 33.7989 33.6735 32.916H46.7896C46.5374 32.0332 46.1591 31.1504 45.7807 30.3937H34.6824C35.0608 29.5109 35.5652 28.7542 36.0697 27.8714H44.5195C44.0151 26.9885 43.3845 26.1057 42.6278 25.349H37.9615C38.7182 24.4662 39.4749 23.7095 40.3577 22.9528C36.1958 19.0432 30.5206 16.7731 24.3408 16.7731H24.2147" fill="#B7A9AA"/>
<path d="M24.4671 64.193C30.6468 64.193 36.1959 61.7968 40.4839 58.0133C41.3667 57.2566 42.1234 56.3738 42.8801 55.491H37.9616C37.331 54.7343 36.7004 53.8514 36.1959 53.0947H44.6458C45.1503 52.338 45.6547 51.4552 46.0331 50.5724H34.8087C34.4303 49.8157 34.052 48.9329 33.7997 48.0501H46.9159C47.6726 45.6538 48.1771 43.1315 48.1771 40.483C48.1771 38.7174 47.9248 37.0779 47.6726 35.4384H33.043C33.1691 34.5556 33.4214 33.7989 33.6736 32.916H46.7898C46.5375 32.0332 46.1592 31.1504 45.7808 30.3937H34.6825C35.0609 29.5109 35.5654 28.7542 36.0698 27.8714H44.5197C44.0152 26.9885 43.3846 26.1057 42.6279 25.349H37.9616C38.7183 24.4662 39.475 23.7095 40.3578 22.9528C36.1959 19.0432 30.5207 16.7731 24.341 16.7731H24.2148" fill="#B7A9AA"/>
<path d="M32.9162 46.4114L33.2945 44.2674C33.1684 44.2674 32.9162 44.3935 32.6639 44.3935C31.7811 44.3935 31.655 43.8891 31.7811 43.6368L32.5378 39.2227H33.9251L34.3035 36.8265H33.0423L33.2945 35.3131H30.7722C30.7722 35.3131 29.2588 43.6368 29.2588 44.6458C29.2588 46.1592 30.1416 46.7897 31.2767 46.7897C32.0334 46.7897 32.6639 46.5375 32.9162 46.4114Z" fill="white"/>
<path d="M33.7988 42.3746C33.7988 45.9058 36.195 46.7887 38.2129 46.7887C40.1047 46.7887 40.8614 46.4103 40.8614 46.4103L41.3658 44.0141C41.3658 44.0141 39.9786 44.6447 38.7174 44.6447C35.9428 44.6447 36.4473 42.6268 36.4473 42.6268H41.6181C41.6181 42.6268 41.9964 40.9873 41.9964 40.3567C41.9964 38.7172 41.1136 36.6993 38.339 36.6993C35.6906 36.4471 33.7988 39.2216 33.7988 42.3746ZM38.2129 38.7172C39.6002 38.7172 39.348 40.3567 39.348 40.4828H36.5734C36.5734 40.3567 36.8256 38.7172 38.2129 38.7172Z" fill="white"/>
<path d="M54.2304 46.4114L54.7348 43.6369C54.7348 43.6369 53.4737 44.2674 52.5909 44.2674C50.8252 44.2674 50.0685 42.8802 50.0685 41.3668C50.0685 38.34 51.5819 36.7004 53.3476 36.7004C54.6087 36.7004 55.6177 37.4571 55.6177 37.4571L55.996 34.8087C55.996 34.8087 54.4826 34.1781 53.0953 34.1781C50.1946 34.1781 47.2939 36.7004 47.2939 41.4929C47.2939 44.6458 48.8073 46.7898 51.8342 46.7898C52.8431 46.7898 54.2304 46.4114 54.2304 46.4114Z" fill="white"/>
<path d="M19.0434 36.4473C17.2778 36.4473 16.0166 36.9517 16.0166 36.9517L15.6383 39.0957C15.6383 39.0957 16.7733 38.5913 18.4128 38.5913C19.2957 38.5913 20.0524 38.7174 20.0524 39.4741C20.0524 39.9785 19.9262 40.1047 19.9262 40.1047C19.9262 40.1047 19.1695 40.1047 18.7912 40.1047C16.6472 40.1047 14.251 40.9875 14.251 43.8882C14.251 46.1583 15.7644 46.6627 16.6472 46.6627C18.4128 46.6627 19.1695 45.5277 19.2957 45.5277L19.1695 46.5366H21.4396L22.4486 39.6002C22.4486 36.5734 19.9262 36.4473 19.0434 36.4473ZM19.5479 42.1225C19.5479 42.5009 19.2957 44.5187 17.7822 44.5187C17.0255 44.5187 16.7733 43.8882 16.7733 43.5098C16.7733 42.8792 17.1517 41.9964 19.0434 41.9964C19.4218 42.1225 19.5479 42.1225 19.5479 42.1225Z" fill="white"/>
<path d="M24.845 46.6629C25.4756 46.6629 28.6285 46.789 28.6285 43.3838C28.6285 40.2309 25.6017 40.8615 25.6017 39.6003C25.6017 38.9697 26.1062 38.7175 26.989 38.7175C27.3674 38.7175 28.7546 38.8436 28.7546 38.8436L29.133 36.5735C29.133 36.5735 28.2502 36.3213 26.7368 36.3213C24.845 36.3213 22.9533 37.078 22.9533 39.6003C22.9533 42.501 26.1062 42.2488 26.1062 43.3838C26.1062 44.1405 25.2234 44.2667 24.5928 44.2667C23.4577 44.2667 22.3227 43.8883 22.3227 43.8883L21.9443 46.1584C22.0705 46.4106 22.701 46.6629 24.845 46.6629Z" fill="white"/>
<path d="M75.1652 34.4297L74.6608 37.8348C74.6608 37.8348 73.6518 36.5737 72.2645 36.5737C69.9944 36.5737 67.9766 39.3482 67.9766 42.6273C67.9766 44.6452 68.9855 46.7891 71.1295 46.7891C72.6429 46.7891 73.5257 45.7802 73.5257 45.7802L73.3996 46.663H75.9219L77.8137 34.5558L75.1652 34.4297ZM74.0302 41.1139C74.0302 42.5012 73.3996 44.2668 72.0123 44.2668C71.1295 44.2668 70.625 43.5101 70.625 42.2489C70.625 40.2311 71.5078 38.9699 72.6429 38.9699C73.5257 38.9699 74.0302 39.6005 74.0302 41.1139Z" fill="white"/>
<path d="M5.29661 46.5372L6.81001 37.4567L7.06225 46.5372H8.82789L12.1069 37.4567L10.7196 46.5372H13.3681L15.386 34.4299H11.2241L8.70177 41.8708L8.57565 34.4299H4.91826L2.90039 46.5372H5.29661Z" fill="white"/>
<path d="M44.3927 46.5372C45.1494 42.3753 45.2756 38.9702 47.0412 39.6008C47.2934 37.9612 47.6718 37.3307 47.924 36.7001C47.924 36.7001 47.7979 36.7001 47.4195 36.7001C46.2845 36.7001 45.4017 38.2135 45.4017 38.2135L45.6539 36.8262H43.2577L41.6182 46.6633H44.3927V46.5372Z" fill="white"/>
<path d="M60.0317 36.4473C58.2661 36.4473 57.0049 36.9517 57.0049 36.9517L56.6265 39.0957C56.6265 39.0957 57.7616 38.5913 59.4011 38.5913C60.2839 38.5913 61.0406 38.7174 61.0406 39.4741C61.0406 39.9785 60.9145 40.1047 60.9145 40.1047C60.9145 40.1047 60.1578 40.1047 59.7795 40.1047C57.6355 40.1047 55.2393 40.9875 55.2393 43.8882C55.2393 46.1583 56.7527 46.6627 57.6355 46.6627C59.4011 46.6627 60.1578 45.5277 60.2839 45.5277L60.1578 46.5366H62.4279L63.4369 39.6002C63.563 36.5734 60.9145 36.4473 60.0317 36.4473ZM60.6623 42.1225C60.6623 42.5009 60.4101 44.5187 58.8966 44.5187C58.1399 44.5187 57.8877 43.8882 57.8877 43.5098C57.8877 42.8792 58.2661 41.9964 60.1578 41.9964C60.5362 42.1225 60.5362 42.1225 60.6623 42.1225Z" fill="white"/>
<path d="M65.5802 46.5372C66.3369 42.3753 66.4631 38.9702 68.2287 39.6008C68.4809 37.9612 68.8593 37.3307 69.1115 36.7001C69.1115 36.7001 68.9854 36.7001 68.607 36.7001C67.472 36.7001 66.5892 38.2135 66.5892 38.2135L66.8414 36.8262H64.4452L62.8057 46.6633H65.5802V46.5372Z" fill="white"/>
<path d="M29.0068 44.6458C29.0068 46.1592 29.8897 46.7897 31.0247 46.7897C31.9075 46.7897 32.6642 46.5375 32.9165 46.4114L33.2948 44.2674C33.1687 44.2674 32.9165 44.3935 32.6642 44.3935C31.7814 44.3935 31.6553 43.8891 31.7814 43.6368L32.5381 39.2227H33.9254L34.3037 36.8265H33.0426L33.2948 35.3131" fill="#DCE5E5"/>
<path d="M35.0605 42.3746C35.0605 45.9058 36.1956 46.7887 38.2135 46.7887C40.1052 46.7887 40.8619 46.4103 40.8619 46.4103L41.3664 44.0141C41.3664 44.0141 39.9791 44.6447 38.7179 44.6447C35.9434 44.6447 36.4478 42.6268 36.4478 42.6268H41.6186C41.6186 42.6268 41.997 40.9873 41.997 40.3567C41.997 38.7172 41.1142 36.6993 38.3396 36.6993C35.6911 36.4471 35.0605 39.2216 35.0605 42.3746ZM38.2135 38.7172C39.6008 38.7172 39.853 40.3567 39.853 40.4828H36.574C36.574 40.3567 36.8262 38.7172 38.2135 38.7172Z" fill="#DCE5E5"/>
<path d="M54.2299 46.4114L54.7344 43.6369C54.7344 43.6369 53.4732 44.2674 52.5904 44.2674C50.8248 44.2674 50.0681 42.8802 50.0681 41.3668C50.0681 38.34 51.5815 36.7004 53.3471 36.7004C54.6083 36.7004 55.6172 37.4571 55.6172 37.4571L55.9956 34.8087C55.9956 34.8087 54.4822 34.1781 53.0949 34.1781C50.1942 34.1781 48.5547 36.7004 48.5547 41.4929C48.5547 44.6458 48.8069 46.7898 51.8337 46.7898C52.8427 46.7898 54.2299 46.4114 54.2299 46.4114Z" fill="#DCE5E5"/>
<path d="M15.6383 39.2224C15.6383 39.2224 16.7733 38.7179 18.4128 38.7179C19.2957 38.7179 20.0524 38.8441 20.0524 39.6008C20.0524 40.1052 19.9262 40.2313 19.9262 40.2313C19.9262 40.2313 19.1695 40.2313 18.7912 40.2313C16.6472 40.2313 14.251 41.1142 14.251 44.0149C14.251 46.285 15.7644 46.7894 16.6472 46.7894C18.4128 46.7894 19.1695 45.6544 19.2957 45.6544L19.1695 46.6633H21.4396L22.4486 39.7269C22.4486 36.8262 19.9262 36.7001 18.9173 36.7001L15.6383 39.2224ZM20.8091 42.1231C20.8091 42.5015 19.2957 44.5193 17.7822 44.5193C17.0255 44.5193 16.7733 43.8887 16.7733 43.5104C16.7733 42.8798 17.1517 41.997 19.0434 41.997C19.4218 42.1231 20.8091 42.1231 20.8091 42.1231Z" fill="#DCE5E5"/>
<path d="M22.0703 46.4106C22.0703 46.4106 22.827 46.6629 24.971 46.6629C25.6016 46.6629 28.7545 46.789 28.7545 43.3838C28.7545 40.2309 25.7277 40.8615 25.7277 39.6003C25.7277 38.9697 26.2322 38.7175 27.115 38.7175C27.4933 38.7175 28.8806 38.8436 28.8806 38.8436L29.259 36.5735C29.259 36.5735 28.3762 36.3213 26.8628 36.3213C24.971 36.3213 24.3404 37.078 24.3404 39.6003C24.3404 42.501 26.2322 42.2488 26.2322 43.3838C26.2322 44.1405 25.3494 44.2667 24.7188 44.2667" fill="#DCE5E5"/>
<path d="M74.6607 37.8349C74.6607 37.8349 73.6518 36.5738 72.2645 36.5738C69.9944 36.5738 69.2377 39.3483 69.2377 42.6274C69.2377 44.6453 68.9854 46.7892 71.1294 46.7892C72.6428 46.7892 73.5256 45.7803 73.5256 45.7803L73.3995 46.6631H75.9219L77.8136 34.5559L74.6607 37.8349ZM74.5346 41.114C74.5346 42.5013 73.3995 44.2669 72.0122 44.2669C71.1294 44.2669 70.625 43.5102 70.625 42.249C70.625 40.2312 71.5078 38.97 72.6428 38.97C73.5256 38.97 74.5346 39.6006 74.5346 41.114Z" fill="#DCE5E5"/>
<path d="M5.29661 46.5372L6.81001 37.4567L7.06225 46.5372H8.82789L12.1069 37.4567L10.7196 46.5372H13.3681L15.386 34.4299H12.233L8.70177 41.8708L8.57565 34.4299H7.18837L2.90039 46.5372H5.29661Z" fill="#DCE5E5"/>
<path d="M41.7441 46.5372H44.3926C45.1493 42.3753 45.2754 38.9702 47.0411 39.6008C47.2933 37.9612 47.6716 37.3307 47.9239 36.7001C47.9239 36.7001 47.7978 36.7001 47.4194 36.7001C46.2843 36.7001 45.4015 38.2135 45.4015 38.2135L45.6538 36.8262" fill="#DCE5E5"/>
<path d="M56.6265 39.2224C56.6265 39.2224 57.7616 38.7179 59.4011 38.7179C60.2839 38.7179 61.0406 38.8441 61.0406 39.6008C61.0406 40.1052 60.9145 40.2313 60.9145 40.2313C60.9145 40.2313 60.1578 40.2313 59.7795 40.2313C57.6355 40.2313 55.2393 41.1142 55.2393 44.0149C55.2393 46.285 56.7527 46.7894 57.6355 46.7894C59.4011 46.7894 60.1578 45.6544 60.2839 45.6544L60.1578 46.6633H62.4279L63.4369 39.7269C63.4369 36.8262 60.9145 36.7001 59.9056 36.7001L56.6265 39.2224ZM61.7973 42.1231C61.7973 42.5015 60.2839 44.5193 58.7705 44.5193C58.0138 44.5193 57.7616 43.8887 57.7616 43.5104C57.7616 42.8798 58.1399 41.997 60.0317 41.997C60.5362 42.1231 61.7973 42.1231 61.7973 42.1231Z" fill="#DCE5E5"/>
<path d="M62.9316 46.5372H65.5801C66.3368 42.3753 66.4629 38.9702 68.2285 39.6008C68.4808 37.9612 68.8591 37.3307 69.1114 36.7001C69.1114 36.7001 68.9853 36.7001 68.6069 36.7001C67.4718 36.7001 66.589 38.2135 66.589 38.2135L66.8413 36.8262" fill="#DCE5E5"/>
</g>
<defs>
<clipPath id="clip0_385_4725">
<rect width="80.7148" height="80.7148" fill="white"/>
</clipPath>
</defs>
</svg>
