<svg width="100" height="117" viewBox="0 0 100 117" fill="none" xmlns="http://www.w3.org/2000/svg">
<path opacity="0.4" d="M49.8051 106.992C72.7272 106.992 91.3093 85.2287 91.3093 58.3818C91.3093 31.5349 72.7272 9.77112 49.8051 9.77112C26.8829 9.77112 8.30078 31.5349 8.30078 58.3818C8.30078 85.2287 26.8829 106.992 49.8051 106.992Z" fill="#0C47A0"/>
<path d="M49.8053 33.7362C41.2139 33.7362 34.2412 41.9028 34.2412 51.9652C34.2412 61.8332 40.8404 69.8539 49.5978 70.1456C49.7223 70.1456 49.8883 70.1456 49.9713 70.1456C50.0543 70.1456 50.1789 70.1456 50.2619 70.1456C50.3034 70.1456 50.3449 70.1456 50.3449 70.1456C58.7287 69.8053 65.3279 61.8332 65.3694 51.9652C65.3694 41.9028 58.3967 33.7362 49.8053 33.7362Z" fill="#0C47A0"/>
<path d="M77.9448 94.1103C70.5571 102.082 60.6791 106.992 49.8049 106.992C38.9308 106.992 29.0528 102.082 21.665 94.1103C22.6611 89.6868 25.3589 85.6521 29.3018 82.541C40.6325 73.6939 59.0604 73.6939 70.3081 82.541C74.2925 85.6521 76.9487 89.6868 77.9448 94.1103Z" fill="#0C47A0"/>
</svg>
