<svg width="40" height="40" viewBox="0 0 40 40" fill="none" xmlns="http://www.w3.org/2000/svg">
<path d="M3.33301 16.6666H36.6663" stroke="#0C47A0" stroke-width="1.5" stroke-miterlimit="10" stroke-linecap="round" stroke-linejoin="round"/>
<path d="M19.2468 34.1663H10.7302C4.8135 34.1663 3.31348 32.6996 3.31348 26.8496V13.1496C3.31348 7.84962 4.54686 6.14962 9.19686 5.88295C9.66353 5.86628 10.1802 5.84961 10.7302 5.84961H29.2468C35.1635 5.84961 36.6635 7.31628 36.6635 13.1663V20.5163" stroke="#0C47A0" stroke-width="1.5" stroke-linecap="round" stroke-linejoin="round"/>
<path d="M10 26.6666H16.6667" stroke="#0C47A0" stroke-width="1.5" stroke-miterlimit="10" stroke-linecap="round" stroke-linejoin="round"/>
<path d="M36.6663 30C36.6663 31.25 36.3163 32.4334 35.6996 33.4334C34.5496 35.3667 32.433 36.6667 29.9997 36.6667C27.5663 36.6667 25.4497 35.3667 24.2997 33.4334C23.683 32.4334 23.333 31.25 23.333 30C23.333 26.3167 26.3163 23.3334 29.9997 23.3334C33.683 23.3334 36.6663 26.3167 36.6663 30Z" stroke="#0C47A0" stroke-width="1.5" stroke-miterlimit="10" stroke-linecap="round" stroke-linejoin="round"/>
<path d="M27.4023 29.9992L29.0523 31.6492L32.6023 28.3658" stroke="#0C47A0" stroke-width="1.5" stroke-linecap="round" stroke-linejoin="round"/>
</svg>
