<svg width="40" height="40" viewBox="0 0 40 40" fill="none" xmlns="http://www.w3.org/2000/svg">
<path d="M18.367 32.5H12.5003C11.467 32.5 10.5503 32.4667 9.73366 32.35C5.35033 31.8667 4.16699 29.8 4.16699 24.1667V15.8333C4.16699 10.2 5.35033 8.13333 9.73366 7.65C10.5503 7.53333 11.467 7.5 12.5003 7.5H18.267" stroke="white" stroke-width="1.5" stroke-linecap="round" stroke-linejoin="round"/>
<path d="M25.0332 7.5H27.4999C28.5332 7.5 29.4499 7.53333 30.2665 7.65C34.6499 8.13333 35.8332 10.2 35.8332 15.8333V24.1667C35.8332 29.8 34.6499 31.8667 30.2665 32.35C29.4499 32.4667 28.5332 32.5 27.4999 32.5H25.0332" stroke="white" stroke-width="1.5" stroke-linecap="round" stroke-linejoin="round"/>
<path d="M25 3.33337V36.6667" stroke="white" stroke-width="1.5" stroke-linecap="round" stroke-linejoin="round"/>
<path d="M18.4912 20H18.5061" stroke="white" stroke-width="2" stroke-linecap="round" stroke-linejoin="round"/>
<path d="M11.8242 20H11.8391" stroke="white" stroke-width="2" stroke-linecap="round" stroke-linejoin="round"/>
</svg>
