<svg width="32" height="32" viewBox="0 0 32 32" fill="none" xmlns="http://www.w3.org/2000/svg">
<path d="M25.7863 19.32L24.4529 17.1066C24.1729 16.6133 23.9196 15.68 23.9196 15.1333V11.76C23.9196 8.62663 22.0796 5.91996 19.4263 4.65329C18.7329 3.42663 17.4529 2.66663 15.9863 2.66663C14.5329 2.66663 13.2263 3.45329 12.5329 4.69329C9.93293 5.98663 8.13293 8.66663 8.13293 11.76V15.1333C8.13293 15.68 7.8796 16.6133 7.5996 17.0933L6.25293 19.32C5.7196 20.2133 5.5996 21.2 5.93293 22.1066C6.25293 23 7.01293 23.6933 7.9996 24.0266C10.5863 24.9066 13.3063 25.3333 16.0263 25.3333C18.7463 25.3333 21.4663 24.9066 24.0529 24.04C24.9863 23.7333 25.7063 23.0266 26.0529 22.1066C26.3996 21.1866 26.3063 20.1733 25.7863 19.32Z" fill="#292D32"/>
<path d="M19.7736 26.68C19.2136 28.2266 17.7336 29.3333 16.0002 29.3333C14.9469 29.3333 13.9069 28.9066 13.1736 28.1466C12.7469 27.7466 12.4269 27.2133 12.2402 26.6666C12.4136 26.6933 12.5869 26.7066 12.7736 26.7333C13.0802 26.7733 13.4002 26.8133 13.7202 26.84C14.4802 26.9066 15.2536 26.9466 16.0269 26.9466C16.7869 26.9466 17.5469 26.9066 18.2936 26.84C18.5736 26.8133 18.8536 26.8 19.1202 26.76C19.3336 26.7333 19.5469 26.7066 19.7736 26.68Z" fill="#292D32"/>
</svg>
