<svg width="40" height="40" viewBox="0 0 40 40" fill="none" xmlns="http://www.w3.org/2000/svg">
<path d="M14.9997 36.6667H24.9997C33.333 36.6667 36.6663 33.3334 36.6663 25V15C36.6663 6.66671 33.333 3.33337 24.9997 3.33337H14.9997C6.66634 3.33337 3.33301 6.66671 3.33301 15V25C3.33301 33.3334 6.66634 36.6667 14.9997 36.6667Z" stroke="white" stroke-width="1.5" stroke-linecap="round" stroke-linejoin="round"/>
<path d="M30.6329 25.45V12.6334C30.6329 11.35 29.5996 10.4167 28.3329 10.5167H28.2663C26.0329 10.7 22.6496 11.8501 20.7496 13.0334L20.5663 13.1501C20.2663 13.3334 19.7495 13.3334 19.4328 13.1501L19.1662 12.9834C17.2829 11.8001 13.8996 10.6834 11.6662 10.5C10.3996 10.4 9.36621 11.3501 9.36621 12.6167V25.45C9.36621 26.4667 10.1995 27.4334 11.2162 27.55L11.5162 27.6C13.8162 27.9 17.3829 29.0834 19.4163 30.2L19.4662 30.2167C19.7495 30.3834 20.2162 30.3834 20.4828 30.2167C22.5162 29.0834 26.0995 27.9167 28.4162 27.6L28.7662 27.55C29.7996 27.4334 30.6329 26.4834 30.6329 25.45Z" stroke="white" stroke-width="1.5" stroke-linecap="round" stroke-linejoin="round"/>
<path d="M20 13.5V29.4333" stroke="white" stroke-width="1.5" stroke-linecap="round" stroke-linejoin="round"/>
</svg>
