<svg width="40" height="40" viewBox="0 0 40 40" fill="none" xmlns="http://www.w3.org/2000/svg">
<path d="M18.333 3.33337H14.9997C6.66634 3.33337 3.33301 6.66671 3.33301 15V25C3.33301 33.3334 6.66634 36.6667 14.9997 36.6667H24.9997C33.333 36.6667 36.6663 33.3334 36.6663 25V21.6667" stroke="white" stroke-width="1.5" stroke-linecap="round" stroke-linejoin="round"/>
<path d="M26.7331 5.03339L13.5998 18.1667C13.0998 18.6667 12.5998 19.6501 12.4998 20.3667L11.7831 25.3834C11.5165 27.2001 12.7998 28.4667 14.6165 28.2167L19.6331 27.5001C20.3331 27.4001 21.3165 26.9001 21.8331 26.4001L34.9665 13.2667C37.2331 11.0001 38.2998 8.36672 34.9665 5.03339C31.6331 1.70005 28.9998 2.76672 26.7331 5.03339Z" stroke="white" stroke-width="1.5" stroke-miterlimit="10" stroke-linecap="round" stroke-linejoin="round"/>
<path d="M24.8496 6.91663C25.9663 10.9 29.0829 14.0166 33.0829 15.15" stroke="white" stroke-width="1.5" stroke-miterlimit="10" stroke-linecap="round" stroke-linejoin="round"/>
</svg>
