<svg width="40" height="40" viewBox="0 0 40 40" fill="none" xmlns="http://www.w3.org/2000/svg">
<path d="M17.9168 4.08333C19.0835 3.09999 20.9668 3.09999 22.1001 4.08333L24.7335 6.33333C25.2335 6.74999 26.1835 7.09999 26.8501 7.09999H29.6835C31.4501 7.09999 32.9001 8.54999 32.9001 10.3167V13.15C32.9001 13.8167 33.2501 14.75 33.6668 15.25L35.9168 17.8833C36.9001 19.05 36.9001 20.9333 35.9168 22.0667L33.6668 24.7C33.2501 25.2 32.9001 26.1333 32.9001 26.8V29.6333C32.9001 31.4 31.4501 32.85 29.6835 32.85H26.8501C26.1835 32.85 25.2501 33.2 24.7501 33.6167L22.1168 35.8667C20.9501 36.85 19.0668 36.85 17.9335 35.8667L15.3001 33.6167C14.8001 33.2 13.8501 32.85 13.2001 32.85H10.2835C8.5168 32.85 7.0668 31.4 7.0668 29.6333V26.7833C7.0668 26.1333 6.73346 25.1833 6.3168 24.7L4.0668 22.05C3.10013 20.9 3.10013 19.0333 4.0668 17.8833L6.3168 15.2333C6.73346 14.7333 7.0668 13.8 7.0668 13.15V10.3333C7.0668 8.56666 8.5168 7.11666 10.2835 7.11666H13.1668C13.8335 7.11666 14.7668 6.76666 15.2668 6.34999L17.9168 4.08333Z" stroke="white" stroke-width="1.5" stroke-linecap="round" stroke-linejoin="round"/>
<path d="M20 13.55V21.6" stroke="white" stroke-width="1.5" stroke-linecap="round" stroke-linejoin="round"/>
<path d="M19.9912 26.6666H20.0062" stroke="white" stroke-width="2" stroke-linecap="round" stroke-linejoin="round"/>
</svg>
