<svg width="81" height="81" viewBox="0 0 81 81" fill="none" xmlns="http://www.w3.org/2000/svg">
<path fill-rule="evenodd" clip-rule="evenodd" d="M33.3152 29.0764L29.616 51.8103H35.5344L39.234 29.0764H33.3152V29.0764ZM24.6365 29.0764L18.9937 44.7126L18.3262 41.3456L18.3267 41.3467L18.1796 40.592C17.4967 39.1202 15.915 36.323 12.9284 33.9357C12.0454 33.2301 11.1554 32.6279 10.2949 32.1135L15.4233 51.8103H21.5898L31.0065 29.0764H24.6365V29.0764ZM47.7349 35.3878C47.7349 32.8175 53.4989 33.1478 56.0317 34.5434L56.8762 29.6608C56.8762 29.6608 54.2697 28.6696 51.5528 28.6696C48.6155 28.6696 41.6408 29.9541 41.6408 36.1954C41.6408 42.0693 49.827 42.1423 49.827 45.2262C49.827 48.3101 42.4848 47.7589 40.0618 45.8136L39.1812 50.9171C39.1812 50.9171 41.8238 52.2016 45.8626 52.2016C49.9008 52.2016 55.9948 50.1094 55.9948 44.4186C55.9948 38.5079 47.7349 37.9574 47.7349 35.3878ZM71.8863 29.0764H67.1278C64.9305 29.0764 64.3954 30.7707 64.3954 30.7707L55.5692 51.8103H61.738L62.9721 48.4337H70.4962L71.1903 51.8103H76.6247L71.8863 29.0764ZM64.6776 43.7684L67.7877 35.2609L69.5372 43.7684H64.6776Z" fill="#B7A9AA"/>
<path fill-rule="evenodd" clip-rule="evenodd" d="M16.4158 31.2175C16.4158 31.2175 16.1708 29.1658 13.5555 29.1658H4.05368L3.94238 29.5514C3.94238 29.5514 8.50971 30.4824 12.8915 33.9707C17.0789 37.3046 18.4449 41.4604 18.4449 41.4604L16.4158 31.2175Z" fill="#706D67"/>
</svg>
