<svg width="81" height="81" viewBox="0 0 81 81" fill="none" xmlns="http://www.w3.org/2000/svg">
<g clip-path="url(#clip0_385_4807)">
<path d="M15.627 80.7265V45.7903H29.0175L30.4543 50.966L31.9394 45.7903H80.5136V78.3172C80.5136 78.3172 79.2464 80.6819 77.7774 80.7265H50.8751L49.2527 75.2162V80.7265H43.9498V71.3121C43.9498 71.3121 43.2233 72.6283 41.6575 72.6283H39.8495V80.7265H31.8183L30.3816 75.4393L28.9288 80.7265H15.627Z" fill="white"/>
<path d="M0 19.443L3.01873 -0.0106201H8.24098L9.95214 10.8763V-0.0106201H16.4416L17.4586 7.86454L18.4433 -0.0106201H47.5733V3.93812C47.5733 3.93812 49.1069 -0.0106201 51.6171 -0.0106201L61.0688 0.0786223L62.7558 10.8317V-0.0106201H68.1879L69.6811 6.16904V-0.0106201H75.1616V34.948H69.6811L68.2524 28.746V34.948H60.2778L59.4787 29.4376H57.3317L56.5407 34.948H51.1328C48.9697 34.948 47.5814 31.0661 47.5814 31.0661V34.948H39.413L37.7907 29.4376V34.948H7.46612L6.66704 29.4376H4.5281L3.72902 34.948H0V19.443Z" fill="white"/>
<path d="M4.08463 4.3175L0.0166016 30.4862H2.66405L3.4147 25.2436H7.78137L8.53201 30.4862H11.244L7.17601 4.3175H4.08463ZM5.594 10.3856L6.92579 19.5324H4.2622L5.594 10.3856Z" fill="#B7A9AA"/>
<path d="M11.5176 30.4639V4.29517L15.287 4.33979L17.4743 21.2056L19.6133 4.29517H23.3504V30.4639H20.9854V11.1887L18.4752 30.4639H16.4008L13.8825 11.1887V30.4639H11.5176Z" fill="#B7A9AA"/>
<path d="M24.9736 30.4639V4.29517H32.698V10.1402H27.3709V14.6244H32.5689V20.1347H27.3628V24.7751H32.69V30.4639H24.9736Z" fill="#B7A9AA"/>
<path d="M34.0615 4.3175V30.4862H36.4265V21.1833H37.4193L40.2604 30.4862H43.15L40.0344 20.8487C41.3097 20.5586 42.6334 17.5246 42.6334 12.8173C42.6334 7.30695 41.0676 4.33981 39.3241 4.33981L34.0615 4.3175ZM36.4265 10.1625H39.1304C39.7761 10.1625 40.2524 11.568 40.2524 12.9065C40.2524 14.6467 39.6389 15.6506 39.1627 15.6506H36.4265V10.1625Z" fill="#B7A9AA"/>
<path d="M46.0159 30.4639H43.6025V4.29517H46.0159V30.4639Z" fill="#B7A9AA"/>
<path d="M51.7464 30.4639H51.2218C48.6954 30.4639 47.1699 24.9759 47.1699 17.5023C47.1699 9.8502 48.6874 4.3175 51.8675 4.3175H54.4827V10.5195H51.7787C50.4873 10.5195 49.5671 13.3081 49.5671 17.5692C49.5671 22.6334 50.6164 24.7528 52.1177 24.7528H52.7392L51.7464 30.4639Z" fill="#B7A9AA"/>
<path d="M56.8962 4.31748L52.8281 30.4639H55.4756L56.2262 25.2212H60.5929L61.3435 30.4639H64.0475L59.9795 4.29517L56.8962 4.31748ZM58.3974 10.3856L59.7292 19.5324H57.0657L58.3974 10.3856Z" fill="#B7A9AA"/>
<path d="M64.3213 30.4639V4.29517H67.332L71.174 20.7371V4.29517H73.5389V30.4639H70.6251L66.6862 13.5981V30.4639H64.3213Z" fill="#B7A9AA"/>
<path d="M17.249 76.2424V50.0737H24.9734V55.9187H19.6463V60.4029H24.8524V65.9133H19.6463V70.5536H24.9734V76.2424H17.249Z" fill="#B7A9AA"/>
<path d="M55.0801 76.2424V50.0737H62.8045V55.9187H57.4773V60.4029H62.6592V65.9133H57.4773V70.5536H62.8045V76.2424H55.0801Z" fill="#B7A9AA"/>
<path d="M25.2714 76.2424L29.0327 63.3254L25.1826 50.0737H28.161L30.4533 58.2612L32.7537 50.0737H35.619L31.8174 63.1469L35.5868 76.2201H32.6084L30.3807 68.1665L28.2094 76.2201L25.2714 76.2424Z" fill="#B7A9AA"/>
<path d="M35.8701 50.0961V76.2648H38.2996V68.0104H40.7937C42.9004 68.0104 44.4985 64.9094 44.4985 58.9082C44.4985 53.9333 43.2475 50.1184 41.1004 50.1184H35.8701V50.0961ZM38.2996 56.008H40.9229C41.6009 56.008 42.0932 57.1681 42.0932 59.0198C42.0932 60.7599 41.6089 62.0315 40.9148 62.0315H38.2996V56.008Z" fill="#B7A9AA"/>
<path d="M45.5146 50.0737V76.2424H47.8796V66.9395H48.8724L51.7135 76.2424H54.6031L51.4875 66.6049C52.7628 66.3148 54.0866 63.2808 54.0866 58.5735C54.0866 53.0632 52.5207 50.096 50.7773 50.096L45.5146 50.0737ZM47.8877 55.941H50.5916C51.2373 55.941 51.7135 57.3465 51.7135 58.6851C51.7135 60.4252 51.1001 61.4291 50.6239 61.4291H47.8877V55.941Z" fill="#B7A9AA"/>
<path d="M63.9022 76.2425V70.5536H68.6401C69.3423 70.5536 69.641 69.5051 69.641 68.3673C69.641 67.2742 69.3423 66.1587 68.6401 66.1587H66.5012C64.6447 66.1587 63.6035 63.0354 63.6035 58.3282C63.6035 54.134 64.556 50.0961 67.3164 50.0961H71.9252L70.9324 55.9857H66.9451C66.1864 55.9857 65.9523 57.1012 65.9523 58.1497C65.9523 59.2429 66.2429 60.4252 66.824 60.4252H69.0679C71.1423 60.4252 72.0382 63.6824 72.0382 67.9435C72.0382 72.5169 71.0373 76.2648 68.9549 76.2648H63.9022V76.2425Z" fill="#B7A9AA"/>
<path d="M72.5867 76.2425V70.5536H77.3247C78.0269 70.5536 78.3256 69.5051 78.3256 68.3673C78.3256 67.2742 78.0269 66.1587 77.3247 66.1587H75.1857C73.3293 66.1587 72.2881 63.0354 72.2881 58.3282C72.2881 54.134 73.2405 50.0961 76.001 50.0961H80.6098L79.617 55.9857H75.6297C74.871 55.9857 74.6369 57.1012 74.6369 58.1497C74.6369 59.2429 74.9275 60.4252 75.5086 60.4252H77.7525C79.8269 60.4252 80.7228 63.6824 80.7228 67.9435C80.7228 72.5169 79.7219 76.2648 77.6395 76.2648H72.5867V76.2425Z" fill="#B7A9AA"/>
</g>
<defs>
<clipPath id="clip0_385_4807">
<rect width="80.7148" height="80.7148" fill="white"/>
</clipPath>
</defs>
</svg>
