<svg width="243" height="243" viewBox="0 0 243 243" fill="none" xmlns="http://www.w3.org/2000/svg">
<g clip-path="url(#clip0_385_4714)">
<path d="M44.408 233.706C36.8508 233.706 29.8436 228.807 27.5268 221.214L0.769342 133.509C-2.06864 124.206 3.19133 114.329 12.4934 111.491L53.4003 99.0117V25.8562C53.4003 16.724 60.8304 9.29395 69.9625 9.29395H226.438C235.57 9.29395 243 16.724 243 25.8562V119.703C243 128.835 235.57 136.265 226.438 136.265H199.838L208.876 165.886C210.25 170.391 209.789 175.163 207.574 179.322C205.36 183.481 201.658 186.528 197.152 187.903L49.5443 232.937C47.8364 233.458 46.1077 233.706 44.408 233.706ZM17.825 165.652L34.1584 219.19C35.8813 224.835 41.875 228.03 47.521 226.305L195.128 181.272C200.774 179.549 203.966 173.555 202.243 167.91L192.78 136.891H171.435L174.765 147.754C175.034 148.634 174.944 149.583 174.513 150.396C174.082 151.208 173.346 151.816 172.466 152.084L48.8232 189.974C46.9963 190.535 45.0539 189.506 44.4935 187.676L40.5439 174.786C40.2746 173.906 40.3648 172.956 40.7958 172.144C41.2268 171.332 41.9629 170.724 42.8422 170.456L152.37 136.89H111.596L17.825 165.652ZM48.1877 176.068L50.1059 182.329L167.121 146.469L165.203 140.209L48.1877 176.068ZM9.04179 136.863L15.8016 159.021L87.953 136.89H71.0372C66.1504 136.89 61.7213 134.892 58.5239 131.67C56.1851 129.433 54.4969 126.519 53.7816 123.247L9.04179 136.863ZM53.3991 106.259L14.5155 118.123C9.29369 119.715 6.17145 124.963 7.09472 130.209L53.3991 116.116V106.259V106.259ZM63.3771 126.724C65.1012 128.34 67.418 129.333 69.9614 129.333H226.438C231.747 129.333 236.067 125.013 236.067 119.704V25.8562C236.067 20.5465 231.747 16.2271 226.438 16.2271H69.9625C64.6529 16.2271 60.3335 20.5465 60.3335 25.8562V118.606C60.3346 118.659 60.3346 118.712 60.3335 118.765V119.252C60.3323 122.156 61.4948 124.793 63.3771 126.724ZM222.539 100.966H198.273C196.358 100.966 194.806 99.4138 194.806 97.4991C194.806 95.5844 196.358 94.0325 198.273 94.0325H222.539C224.453 94.0325 226.005 95.5844 226.005 97.4991C226.005 99.4138 224.452 100.966 222.539 100.966ZM181.324 100.966H157.058C155.144 100.966 153.592 99.4138 153.592 97.4991C153.592 95.5844 155.144 94.0325 157.058 94.0325H181.324C183.239 94.0325 184.791 95.5844 184.791 97.4991C184.791 99.4138 183.239 100.966 181.324 100.966ZM140.111 100.966H115.845C113.93 100.966 112.379 99.4138 112.379 97.4991C112.379 95.5844 113.93 94.0325 115.845 94.0325H140.111C142.026 94.0325 143.578 95.5844 143.578 97.4991C143.578 99.4138 142.025 100.966 140.111 100.966ZM98.897 100.966H74.6309C72.7162 100.966 71.1643 99.4138 71.1643 97.4991C71.1643 95.5844 72.7162 94.0325 74.6309 94.0325H98.897C100.812 94.0325 102.364 95.5844 102.364 97.4991C102.364 99.4138 100.811 100.966 98.897 100.966ZM93.1425 76.2466H80.3854C75.3011 76.2466 71.1643 72.1098 71.1643 67.0254V56.5783C71.1643 51.4939 75.3011 47.3583 80.3854 47.3583H93.1436C98.228 47.3583 102.364 51.4951 102.364 56.5783V67.0254C102.364 72.1098 98.2268 76.2466 93.1425 76.2466ZM80.3854 54.2915C79.1236 54.2915 78.0975 55.3176 78.0975 56.5783V67.0254C78.0975 68.2873 79.1236 69.3134 80.3854 69.3134H93.1436C94.4043 69.3134 95.4304 68.2873 95.4304 67.0254V56.5783C95.4304 55.3176 94.4043 54.2915 93.1436 54.2915H80.3854V54.2915Z" fill="#212121"/>
</g>
<defs>
<clipPath id="clip0_385_4714">
<rect width="243" height="243" fill="white"/>
</clipPath>
</defs>
</svg>
