<svg width="81" height="81" viewBox="0 0 81 81" fill="none" xmlns="http://www.w3.org/2000/svg">
<g clip-path="url(#clip0_385_4826)">
<path fill-rule="evenodd" clip-rule="evenodd" d="M40.3574 -0.000488281C62.5831 -0.000488281 80.7148 18.1313 80.7148 40.3679C80.7148 62.5821 62.5831 80.7143 40.3574 80.7143C18.1318 80.7143 0 62.5826 0 40.3679C0 18.1313 18.1318 -0.000488281 40.3574 -0.000488281V-0.000488281Z" fill="#B7A9AA"/>
<path fill-rule="evenodd" clip-rule="evenodd" d="M40.3577 4.62537C60.039 4.62537 76.0903 20.6757 76.0903 40.3685C76.0903 60.0388 60.0395 76.0897 40.3577 76.0897C20.6764 76.0897 4.62598 60.0388 4.62598 40.3685C4.62598 20.6757 20.6764 4.62537 40.3577 4.62537V4.62537Z" fill="white"/>
<path fill-rule="evenodd" clip-rule="evenodd" d="M57.4486 50.2203C57.4486 48.4163 55.9803 46.9365 54.1763 46.9365C52.3608 46.9365 50.8926 48.4167 50.8926 50.2203C50.8926 52.0238 52.3608 53.4925 54.1763 53.4925C55.9803 53.481 57.4486 52.0243 57.4486 50.2203Z" fill="#B7A9AA"/>
<path fill-rule="evenodd" clip-rule="evenodd" d="M7.9209 41.3862C7.9209 41.3862 11.6331 31.6263 16.7902 31.6263C16.7902 31.6263 19.0567 31.3489 21.404 36.506C23.7632 41.6631 25.5668 45.8259 26.1105 46.5437C26.6538 47.2721 27.1163 47.9082 27.2899 45.9999C27.4745 44.1027 28.1111 31.4408 29.5564 28.18C29.5564 28.18 29.9151 26.1909 31.6378 26.827C33.3605 27.4631 32.0888 28.8161 31.8229 29.4517C31.5455 30.0878 30.0074 36.1473 30.6435 39.223C30.6435 39.223 30.8171 40.6688 31.9965 39.9514C33.1759 39.223 32.8176 37.6849 32.7249 37.2339C32.6321 36.7829 32.0888 33.1635 36.1592 29.3589C36.1592 29.3589 38.8767 27.1852 40.5071 28.9079C42.126 30.6306 38.067 34.6088 36.0665 36.3319C36.0665 36.3319 34.4361 37.419 34.8986 38.1359C35.3496 38.8643 35.5227 38.5061 36.3439 37.9628C37.1535 37.419 37.4309 37.87 37.3386 38.5869C37.2459 39.3153 36.5289 39.9514 35.9856 40.1365C35.4423 40.3096 34.5288 40.9342 34.6212 42.5651C34.7139 44.1959 35.1649 45.3638 36.4371 45.3638C37.6978 45.3638 40.0566 43.1089 40.9585 39.674C41.8491 36.2396 43.3867 31.4408 42.2996 29.4517C41.224 27.4626 41.3058 25.7399 42.7625 25.3817C44.2074 25.0115 44.5665 25.3817 44.3814 26.7342C44.2074 28.0992 43.6645 32.0769 45.9191 30.5388C48.186 29.0007 48.8216 30.0878 48.2783 32.6202C47.7345 35.1526 45.9191 40.0442 46.8335 40.6688C47.735 41.2929 50.2683 38.0551 50.9039 35.3376C51.5395 32.6202 50.8116 28.5497 53.2512 28.5497C55.7028 28.5497 53.9796 32.4351 53.8873 33.0712C53.795 33.7073 52.9849 40.2178 53.9796 40.2178C54.9735 40.2178 56.6851 37.0838 57.4025 33.6498C57.4025 33.6498 56.2461 31.0826 57.2399 29.4517C58.2347 27.8213 59.5069 26.9193 59.7723 28.8156C60.0387 30.7239 58.1075 33.6843 59.472 33.9617C60.8254 34.2276 61.0454 32.6895 63.2072 31.348C65.3813 30.007 67.1973 29.2666 67.7406 30.446C68.2843 31.6254 65.6013 35.2798 62.3979 35.9737C59.1946 36.6557 61.0105 37.9858 62.3056 37.7777C63.6118 37.5697 63.5778 39.2464 62.2124 39.9514C60.8599 40.6454 58.7785 41.2929 59.1376 42.7497C59.5073 44.1955 60.2123 45.1324 69.81 40.5296C69.81 40.5296 64.8031 47.4797 59.438 47.1899C55.2972 46.9828 57.4484 41.9864 57.9688 40.8768C58.4901 39.7778 58.8363 36.9216 58.0505 36.6906C57.4953 36.5285 55.633 40.4373 54.928 41.929C54.223 43.4441 51.991 46.1846 51.991 43.1084C51.991 40.0437 51.991 38.2282 51.54 38.2282C51.089 38.2282 48.8221 41.0266 47.8282 43.0161C46.8335 45.0047 44.0232 44.9124 44.3011 41.3852C44.5665 37.87 44.9252 34.2506 44.8448 33.7991C44.7516 33.3481 44.1155 30.8966 43.3871 34.065C42.6702 37.2335 42.0346 45.1893 38.8776 47.0856C35.7092 48.9943 31.5464 48.265 33.535 41.7439C33.535 41.7439 34.0788 39.5927 32.8181 40.7492C31.5459 41.9285 31.28 42.2868 31.5459 43.8248C31.8233 45.3634 32.0897 49.3521 30.3665 49.2598C28.6549 49.1675 29.0135 45.9067 29.8228 44.0095C30.6439 42.1132 30.2738 41.3848 30.1002 40.6683C29.9155 39.951 29.0131 38.1355 28.7357 41.2002C28.4698 44.2878 28.5621 56.2328 27.475 60.3028C27.475 60.3028 23.4854 53.423 22.1328 49.5372C20.7798 45.6408 16.1546 37.2339 14.8016 37.1412C13.4486 37.0498 11.2744 37.7782 7.9209 41.3862V41.3862Z" fill="#B7A9AA"/>
<path fill-rule="evenodd" clip-rule="evenodd" d="M62.4675 34.1474C62.4675 34.1474 62.2126 33.627 62.9539 32.991C63.7057 32.3549 64.6302 32.3549 64.711 32.7365C64.7808 33.1067 64.4107 33.6615 64.006 33.8121C63.5895 33.9628 62.8836 34.4133 62.4675 34.1474ZM34.8184 35.5697C34.8184 35.5697 34.0666 35.5697 34.8878 34.078C35.7089 32.5864 37.4665 30.1578 38.2877 30.5743C39.1089 30.9789 36.9811 33.7428 36.8654 33.9279C36.7611 34.113 35.7089 35.4889 34.8184 35.5697V35.5697ZM57.0675 50.2207C57.0672 50.9874 56.7626 51.7226 56.2204 52.2648C55.6783 52.8069 54.9431 53.1116 54.1764 53.1118C52.569 53.1233 51.2739 51.8167 51.2739 50.2207C51.2624 48.6248 52.569 47.3182 54.1649 47.3182C54.9345 47.3188 55.6725 47.6248 56.2167 48.169C56.7609 48.7132 57.0669 49.4511 57.0675 50.2207V50.2207Z" fill="white"/>
<path fill-rule="evenodd" clip-rule="evenodd" d="M52.9497 51.921H53.4126V50.3719H54.604C55.3438 50.3719 55.1358 51.0419 55.2166 51.47L55.2864 51.921H55.8407C55.6442 51.6087 55.7145 51.5398 55.6676 51.0654C55.6093 50.4293 55.6093 50.3719 55.2396 50.1404C55.5868 49.874 55.725 49.7009 55.714 49.2379C55.6671 48.4172 55.1238 48.313 54.5566 48.313H52.9492V51.921H52.9497Z" fill="#B7A9AA"/>
<path fill-rule="evenodd" clip-rule="evenodd" d="M54.5685 48.7288C54.8583 48.7288 55.2969 48.7976 55.2395 49.4232C55.1821 49.8852 54.8808 49.966 54.5685 49.966H53.4121V48.7292H54.5685V48.7288Z" fill="white"/>
</g>
<defs>
<clipPath id="clip0_385_4826">
<rect width="80.7148" height="80.7148" fill="white"/>
</clipPath>
</defs>
</svg>
