<svg width="32" height="32" viewBox="0 0 32 32" fill="none" xmlns="http://www.w3.org/2000/svg">
<path d="M28.0932 6.97329C25.9466 6.75996 23.7999 6.59996 21.6399 6.47996V6.46663L21.3466 4.73329C21.1466 3.50663 20.8532 1.66663 17.7332 1.66663H14.2399C11.1332 1.66663 10.8399 3.42663 10.6266 4.71996L10.3466 6.42663C9.10655 6.50663 7.86655 6.58663 6.62655 6.70663L3.90655 6.97329C3.34655 7.02663 2.94655 7.51996 2.99988 8.06663C3.05322 8.61329 3.53322 9.01329 4.09322 8.95996L6.81322 8.69329C13.7999 7.99996 20.8399 8.26663 27.9066 8.97329C27.9466 8.97329 27.9732 8.97329 28.0132 8.97329C28.5199 8.97329 28.9599 8.58663 29.0132 8.06663C29.0532 7.51996 28.6532 7.02663 28.0932 6.97329Z" fill="#FC6C7A"/>
<path opacity="0.3991" d="M25.6403 10.8534C25.3203 10.52 24.8803 10.3334 24.427 10.3334H7.57365C7.12032 10.3334 6.66698 10.52 6.36032 10.8534C6.05365 11.1867 5.88032 11.64 5.90698 12.1067L6.73365 25.7867C6.88032 27.8134 7.06698 30.3467 11.7203 30.3467H20.2803C24.9337 30.3467 25.1203 27.8267 25.267 25.7867L26.0937 12.12C26.1203 11.64 25.947 11.1867 25.6403 10.8534Z" fill="#FC6C7A"/>
<path fill-rule="evenodd" clip-rule="evenodd" d="M12.7734 22.6666C12.7734 22.1143 13.2212 21.6666 13.7734 21.6666H18.2134C18.7657 21.6666 19.2134 22.1143 19.2134 22.6666C19.2134 23.2189 18.7657 23.6666 18.2134 23.6666H13.7734C13.2212 23.6666 12.7734 23.2189 12.7734 22.6666Z" fill="#FC6C7A"/>
<path fill-rule="evenodd" clip-rule="evenodd" d="M11.667 17.3334C11.667 16.7811 12.1147 16.3334 12.667 16.3334H19.3337C19.8859 16.3334 20.3337 16.7811 20.3337 17.3334C20.3337 17.8857 19.8859 18.3334 19.3337 18.3334H12.667C12.1147 18.3334 11.667 17.8857 11.667 17.3334Z" fill="#FC6C7A"/>
</svg>
